<?xml version="1.0" encoding="UTF-8" standalone="no"?>
<!-- Created with Inkscape (http://www.inkscape.org/) -->

<svg
   xmlns:dc="http://purl.org/dc/elements/1.1/"
   xmlns:cc="http://creativecommons.org/ns#"
   xmlns:rdf="http://www.w3.org/1999/02/22-rdf-syntax-ns#"
   xmlns:svg="http://www.w3.org/2000/svg"
   xmlns="http://www.w3.org/2000/svg"
   xmlns:sodipodi="http://sodipodi.sourceforge.net/DTD/sodipodi-0.dtd"
   xmlns:inkscape="http://www.inkscape.org/namespaces/inkscape"
   width="108"
   height="18"
   viewBox="0 0 28.575007 4.7625003"
   version="1.1"
   id="svg8"
   inkscape:version="0.92.1 r15371"
   sodipodi:docname="icons.svg">
  <defs
     id="defs2">
    <inkscape:perspective
       sodipodi:type="inkscape:persp3d"
       inkscape:vp_x="-2.3052004 : -2.0824259 : 1"
       inkscape:vp_y="0 : 1000 : 0"
       inkscape:vp_z="22.861705 : 9.3433471 : 1"
       inkscape:persp3d-origin="9.0755382 : 2.1307651 : 1"
       id="perspective2078" />
  </defs>
  <sodipodi:namedview
     id="base"
     pagecolor="#ffffff"
     bordercolor="#666666"
     borderopacity="1.0"
     inkscape:pageopacity="0.0"
     inkscape:pageshadow="2"
     inkscape:zoom="26.79149"
     inkscape:cx="7.000284"
     inkscape:cy="20.046848"
     inkscape:document-units="px"
     inkscape:current-layer="layer1"
     showgrid="false"
     inkscape:measure-start="0,0"
     inkscape:measure-end="0,0"
     showguides="true"
     inkscape:guide-bbox="true"
     fit-margin-top="0"
     fit-margin-left="0"
     fit-margin-right="0"
     fit-margin-bottom="0"
     inkscape:window-width="1280"
     inkscape:window-height="960"
     inkscape:window-x="1366"
     inkscape:window-y="27"
     inkscape:window-maximized="1"
     units="px"
     inkscape:lockguides="false" />
  <metadata
     id="metadata5">
    <rdf:RDF>
      <cc:Work
         rdf:about="">
        <dc:format>image/svg+xml</dc:format>
        <dc:type
           rdf:resource="http://purl.org/dc/dcmitype/StillImage" />
        <dc:title />
      </cc:Work>
    </rdf:RDF>
  </metadata>
  <g
     inkscape:label="Capa 1"
     inkscape:groupmode="layer"
     id="layer1"
     transform="translate(-82.113983,-151.29594)">
    <rect
       style="opacity:1;fill:#ffffff;stroke:#666666;stroke-width:0.12632509;stroke-miterlimit:4;stroke-dasharray:none;stroke-opacity:1"
       id="rect1274-6"
       width="3.1809671"
       height="3.2373052"
       x="92.452637"
       y="152.08925" />
    <rect
       style="opacity:1;fill:#ffffff;stroke:#666666;stroke-width:0.12632509;stroke-miterlimit:4;stroke-dasharray:none;stroke-opacity:1"
       id="rect1274-3"
       width="3.1809671"
       height="3.2373052"
       x="87.657799"
       y="152.08925" />
    <rect
       style="opacity:0;fill:none;stroke:#000000;stroke-width:0.26499999;stroke-miterlimit:4;stroke-dasharray:none;stroke-opacity:1"
       id="rect461"
       width="4.5101733"
       height="3.8085907"
       x="83.555138"
       y="149.66768" />
    <rect
       style="opacity:0;fill:none;stroke:#000000;stroke-width:0.26499999;stroke-miterlimit:4;stroke-dasharray:none;stroke-opacity:1"
       id="rect1268"
       width="4.911078"
       height="5.6460686"
       x="84.123085"
       y="150.26903" />
    <rect
       style="opacity:0;fill:none;stroke:#000000;stroke-width:0.26499999;stroke-miterlimit:4;stroke-dasharray:none;stroke-opacity:1"
       id="rect1270"
       width="4.9778938"
       height="3.9422266"
       x="84.123085"
       y="150.26903" />
    <rect
       style="opacity:0;fill:none;stroke:#000000;stroke-width:0.26499999;stroke-miterlimit:4;stroke-dasharray:none;stroke-opacity:1"
       id="rect1272"
       width="4.51017"
       height="3.8085938"
       x="83.555138"
       y="149.66768" />
    <rect
       style="opacity:1;fill:#ffffff;stroke:#666666;stroke-width:0.12632509;stroke-miterlimit:4;stroke-dasharray:none;stroke-opacity:1"
       id="rect1274"
       width="3.1809671"
       height="3.2373052"
       x="82.907722"
       y="152.08925" />
    <path
       style="fill:none;fill-rule:evenodd;stroke:#000000;stroke-width:0.54582351;stroke-linecap:butt;stroke-linejoin:miter;stroke-miterlimit:4;stroke-dasharray:none;stroke-opacity:1"
       d="m 90.575834,152.4975 c -0.558467,0.29368 -0.990719,1.00809 -1.290991,2.16242 l -1.194168,-1.22644"
       id="path1871"
       inkscape:connector-curvature="0"
       sodipodi:nodetypes="ccc" />
    <path
       style="fill:none;fill-rule:evenodd;stroke:#000000;stroke-width:0.57056522;stroke-linecap:butt;stroke-linejoin:miter;stroke-miterlimit:4;stroke-dasharray:none;stroke-opacity:1"
       d="m 92.54394,153.72645 h 2.987362"
       id="path2054"
       inkscape:connector-curvature="0" />
    <g
       id="g2205"
       transform="matrix(0.0098851,0,0,0.0098851,106.11363,151.12261)"
       style="fill:#666666;fill-opacity:1">
      <g
         id="g2149"
         transform="matrix(0.9242019,0,0,0.9242019,1.1747758,36.258286)"
         style="fill:#666666;fill-opacity:1">
        <path
           id="path2147"
           d="M 462.854,224.022 248.397,438.461 c -53.216,53.19 -139.781,53.19 -192.984,0 -53.219,-53.214 -53.219,-139.779 0,-192.993 L 269.851,31.053 c 41.379,-41.404 108.72,-41.404 150.126,0 41.369,41.371 41.369,108.717 0,150.089 L 248.751,352.315 c -14.26,14.482 -33.313,22.478 -53.676,22.565 -40.674,0.178 -76.26,-35.357 -76.111,-76.11 0.072,-20.315 8.116,-39.386 22.568,-53.657 L 312.737,73.934 334.178,95.374 162.621,266.908 c -8.545,8.56 -13.285,19.863 -13.329,31.983 -0.105,24.433 21.235,45.779 45.667,45.667 12.099,-0.032 23.457,-4.77 31.998,-13.329 L 398.532,159.698 c 29.557,-29.554 29.557,-77.648 0,-107.208 -29.589,-29.554 -77.679,-29.554 -107.235,0 L 76.854,266.908 c -41.388,41.369 -41.388,108.715 0,150.116 41.374,41.374 108.717,41.374 150.103,0 L 441.419,202.582 Z"
           inkscape:connector-curvature="0"
           style="fill:#666666;fill-opacity:1" />
      </g>
      <g
         id="g2151"
         style="fill:#666666;fill-opacity:1" />
      <g
         id="g2153"
         style="fill:#666666;fill-opacity:1" />
      <g
         id="g2155"
         style="fill:#666666;fill-opacity:1" />
      <g
         id="g2157"
         style="fill:#666666;fill-opacity:1" />
      <g
         id="g2159"
         style="fill:#666666;fill-opacity:1" />
      <g
         id="g2161"
         style="fill:#666666;fill-opacity:1" />
      <g
         id="g2163"
         style="fill:#666666;fill-opacity:1" />
      <g
         id="g2165"
         style="fill:#666666;fill-opacity:1" />
      <g
         id="g2167"
         style="fill:#666666;fill-opacity:1" />
      <g
         id="g2169"
         style="fill:#666666;fill-opacity:1" />
      <g
         id="g2171"
         style="fill:#666666;fill-opacity:1" />
      <g
         id="g2173"
         style="fill:#666666;fill-opacity:1" />
      <g
         id="g2175"
         style="fill:#666666;fill-opacity:1" />
      <g
         id="g2177"
         style="fill:#666666;fill-opacity:1" />
      <g
         id="g2179"
         style="fill:#666666;fill-opacity:1" />
    </g>
    <path
       inkscape:connector-curvature="0"
       style="fill:#ffd83d;stroke:#eac328;stroke-width:0.14472711;stroke-miterlimit:4;stroke-dasharray:none"
       d="m 103.0646,153.24838 h -1.68081 l 1.34465,0.98874 -0.51413,1.60171 1.34464,-0.98872 1.34467,0.98872 -0.51413,-1.60171 1.34466,-0.98874 h -1.68083 l -0.51412,-1.60171 z"
       id="path4" />
    <path
       inkscape:connector-curvature="0"
       style="fill:#ffffff;stroke:#666666;stroke-width:0.14472711;stroke-miterlimit:4;stroke-dasharray:none;stroke-opacity:1"
       d="m 98.270973,153.24754 h -1.68081 l 1.34465,0.98874 -0.51413,1.60171 1.34464,-0.98872 1.344697,0.98872 -0.514159,-1.60171 1.344689,-0.98874 h -1.680857 l -0.51412,-1.60171 z"
       id="path4-3" />
  </g>
</svg>
